<svg width="40" height="40" viewBox="0 0 40 40" fill="none" xmlns="http://www.w3.org/2000/svg">
<path d="M7.85531 6.45748C8.98077 6.80059 9.62105 7.99993 9.27742 9.14056C8.9338 10.2812 7.73941 10.9212 6.61395 10.5781C5.4885 10.2349 4.84822 9.03561 5.19184 7.89498C5.53547 6.75436 6.72986 6.11436 7.85531 6.45748Z" fill="white" stroke="#091747"/>
<path d="M12.79 10.273L9.40252 9.2403" stroke="#091747" stroke-linecap="round"/>
<path d="M16.7869 9.86318C17.3774 10.8934 17.0255 12.2087 16.0051 12.8022C14.9847 13.3956 13.6779 13.0449 13.0874 12.0147C12.4969 10.9845 12.8488 9.66922 13.8693 9.07577C14.8897 8.48232 16.1965 8.83298 16.7869 9.86318Z" fill="white" stroke="#091747"/>
<path d="M17.7965 16.0455L16.0275 12.9592" stroke="#091747" stroke-linecap="round"/>
<path d="M23.8262 21.4986C22.9917 23.6383 20.5953 24.6887 18.477 23.8521C16.3588 23.0156 15.3121 20.6055 16.1467 18.4657C16.9813 16.326 19.3776 15.2757 21.4959 16.1122C23.6141 16.9487 24.6608 19.3588 23.8262 21.4986Z" fill="white" stroke="#091747"/>
<path d="M2.26358 23.794C3.12482 22.9813 4.4767 23.0251 5.2831 23.8917C6.0895 24.7582 6.04526 26.1195 5.18402 26.9322C4.32277 27.7449 2.97089 27.701 2.16449 26.8345C1.35809 25.968 1.40233 24.6067 2.26358 23.794Z" fill="white" stroke="#091747"/>
<path d="M8.01422 21.3953L5.43041 23.8334" stroke="#091747" stroke-linecap="round"/>
<path d="M9.66243 17.7026C10.8381 17.7022 11.7967 18.6625 11.7963 19.8548C11.7959 21.047 10.8367 22.0079 9.66107 22.0083C8.48545 22.0086 7.52683 21.0484 7.52721 19.8561C7.52758 18.6639 8.48681 17.703 9.66243 17.7026Z" fill="#091747" stroke="#091747"/>
<path d="M15.4849 19.9125L11.945 19.9137" stroke="#091747" stroke-linecap="round"/>
<path d="M14.4229 37.3023C14.1542 36.1419 14.8711 34.9865 16.0166 34.7169C17.1621 34.4473 18.3123 35.1632 18.581 36.3236C18.8496 37.4839 18.1328 38.6394 16.9872 38.909C15.8417 39.1786 14.6915 38.4626 14.4229 37.3023Z" fill="white" stroke="#091747"/>
<path d="M15.2369 31.0899L16.0405 34.5608" stroke="#091747" stroke-linecap="round"/>
<path d="M12.8884 27.8097C13.4798 26.7785 14.787 26.4275 15.8064 27.02C16.8259 27.6125 17.1775 28.9274 16.5861 29.9586C15.9946 30.9897 14.6875 31.3407 13.668 30.7482C12.6485 30.1558 12.2969 28.8408 12.8884 27.8097Z" fill="white" stroke="#091747"/>
<path d="M17.7011 23.8346L15.9302 26.9221" stroke="#091747" stroke-linecap="round"/>
<path d="M32.1412 33.4458C31.0158 33.1027 30.3755 31.9033 30.7191 30.7627C31.0627 29.6221 32.2571 28.9821 33.3826 29.3252C34.508 29.6683 35.1483 30.8677 34.8047 32.0083C34.4611 33.1489 33.2667 33.7889 32.1412 33.4458Z" fill="white" stroke="#091747"/>
<path d="M27.2065 29.6302L30.5939 30.663" stroke="#091747" stroke-linecap="round"/>
<path d="M23.2095 30.0401C22.619 29.0099 22.971 27.6946 23.9914 27.1011C25.0118 26.5077 26.3186 26.8584 26.9091 27.8886C27.4995 28.9188 27.1476 30.2341 26.1272 30.8275C25.1068 31.421 23.8 31.0703 23.2095 30.0401Z" fill="white" stroke="#091747"/>
<path d="M22.2 23.8577L23.969 26.9441" stroke="#091747" stroke-linecap="round"/>
<path d="M37.7364 16.1616C36.8752 16.9743 35.5233 16.9304 34.7169 16.0639C33.9105 15.1974 33.9547 13.8361 34.816 13.0234C35.6772 12.2107 37.0291 12.2545 37.8355 13.1211C38.6419 13.9876 38.5977 15.3489 37.7364 16.1616Z" fill="white" stroke="#091747"/>
<path d="M31.9858 18.5603L34.5696 16.1221" stroke="#091747" stroke-linecap="round"/>
<path d="M30.3376 22.2529C29.1619 22.2533 28.2033 21.293 28.2037 20.1008C28.2041 18.9086 29.1633 17.9477 30.3389 17.9473C31.5146 17.9469 32.4732 18.9072 32.4728 20.0994C32.4724 21.2917 31.5132 22.2526 30.3376 22.2529Z" fill="white" stroke="#091747"/>
<path d="M24.5151 20.043L28.055 20.0419" stroke="#091747" stroke-linecap="round"/>
<path d="M25.5354 2.69772C25.804 3.85806 25.0872 5.0135 23.9416 5.28312C22.7961 5.55274 21.6459 4.83675 21.3773 3.6764C21.1086 2.51606 21.8255 1.36062 22.971 1.091C24.1165 0.821384 25.2667 1.53738 25.5354 2.69772Z" fill="white" stroke="#091747"/>
<path d="M24.7214 8.91015L23.9177 5.43924" stroke="#091747" stroke-linecap="round"/>
<path d="M27.0698 12.1903C26.4784 13.2215 25.1712 13.5725 24.1517 12.98C23.1323 12.3876 22.7807 11.0726 23.3721 10.0414C23.9636 9.01028 25.2707 8.65932 26.2902 9.25177C27.3097 9.84423 27.6613 11.1592 27.0698 12.1903Z" fill="white" stroke="#091747"/>
<path d="M22.2571 16.1654L24.028 13.0779" stroke="#091747" stroke-linecap="round"/>
</svg>
