<svg width="40" height="40" viewBox="0 0 40 40" fill="none" xmlns="http://www.w3.org/2000/svg">
<path d="M7.78317 6.69684C8.77518 6.99928 9.34247 8.05784 9.03826 9.06764C8.73405 10.0774 7.67804 10.6411 6.68604 10.3387C5.69403 10.0362 5.12673 8.97769 5.43095 7.96788C5.73516 6.95808 6.79116 6.39441 7.78317 6.69684Z" fill="white" stroke="#091747" stroke-width="1.5"/>
<path d="M12.79 10.2731L9.40254 9.24034" stroke="#091747" stroke-width="1.5" stroke-linecap="round"/>
<path d="M16.5708 9.98893C17.093 10.8999 16.7812 12.0616 15.8808 12.5853C14.9803 13.109 13.8257 12.8001 13.3035 11.8891C12.7813 10.9781 13.0931 9.81642 13.9936 9.29273C14.8941 8.76904 16.0487 9.07792 16.5708 9.98893Z" fill="white" stroke="#091747" stroke-width="1.5"/>
<path d="M17.7964 16.0455L16.0275 12.9592" stroke="#091747" stroke-width="1.5" stroke-linecap="round"/>
<path d="M23.5938 21.4067C22.8089 23.4191 20.5565 24.4046 18.5679 23.6192C16.5793 22.8339 15.5944 20.5699 16.3792 18.5576C17.1641 16.5452 19.4165 15.5597 21.4051 16.3451C23.3937 17.1304 24.3786 19.3944 23.5938 21.4067Z" fill="white" stroke="#091747" stroke-width="1.5"/>
<path d="M2.43389 23.977C3.19474 23.259 4.38897 23.2978 5.10128 24.0632C5.81358 24.8287 5.77456 26.0312 5.01371 26.7492C4.25285 27.4672 3.05862 27.4283 2.34632 26.6629C1.63401 25.8975 1.67303 24.6949 2.43389 23.977Z" fill="white" stroke="#091747" stroke-width="1.5"/>
<path d="M8.01419 21.3953L5.43038 23.8334" stroke="#091747" stroke-width="1.5" stroke-linecap="round"/>
<path d="M9.66232 17.9526C10.6982 17.9523 11.5466 18.799 11.5463 19.8548C11.5459 20.9106 10.697 21.7579 9.66112 21.7582C8.62519 21.7586 7.77684 20.9118 7.77718 19.856C7.77751 18.8002 8.6264 17.9529 9.66232 17.9526Z" fill="white" stroke="#091747" stroke-width="1.5"/>
<path d="M15.4849 19.9125L11.945 19.9136" stroke="#091747" stroke-width="1.5" stroke-linecap="round"/>
<path d="M14.6662 37.245C14.4284 36.2178 15.0632 35.1981 16.073 34.9605C17.0827 34.7228 18.0998 35.3537 18.3376 36.3809C18.5754 37.4081 17.9406 38.4278 16.9308 38.6655C15.921 38.9031 14.904 38.2722 14.6662 37.245Z" fill="white" stroke="#091747" stroke-width="1.5"/>
<path d="M15.2369 31.0898L16.0405 34.5608" stroke="#091747" stroke-width="1.5" stroke-linecap="round"/>
<path d="M13.1045 27.9353C13.6277 27.0231 14.7828 26.7143 15.6821 27.2369C16.5813 27.7595 16.8932 28.9207 16.3699 29.833C15.8467 30.7452 14.6916 31.054 13.7924 30.5314C12.8931 30.0088 12.5813 28.8475 13.1045 27.9353Z" fill="white" stroke="#091747" stroke-width="1.5"/>
<path d="M17.7011 23.8345L15.9302 26.9221" stroke="#091747" stroke-width="1.5" stroke-linecap="round"/>
<path d="M32.2133 33.2065C31.2213 32.904 30.654 31.8455 30.9582 30.8357C31.2624 29.8259 32.3184 29.2622 33.3104 29.5646C34.3024 29.8671 34.8697 30.9256 34.5655 31.9354C34.2613 32.9452 33.2053 33.5089 32.2133 33.2065Z" fill="white" stroke="#091747" stroke-width="1.5"/>
<path d="M27.2065 29.6302L30.5939 30.663" stroke="#091747" stroke-width="1.5" stroke-linecap="round"/>
<path d="M23.4256 29.9145C22.9035 29.0034 23.2152 27.8418 24.1157 27.3181C25.0162 26.7944 26.1708 27.1033 26.693 28.0143C27.2151 28.9253 26.9034 30.087 26.0029 30.6107C25.1024 31.1343 23.9478 30.8255 23.4256 29.9145Z" fill="white" stroke="#091747" stroke-width="1.5"/>
<path d="M22.2 23.8577L23.969 26.9441" stroke="#091747" stroke-width="1.5" stroke-linecap="round"/>
<path d="M37.5661 15.9786C36.8052 16.6966 35.611 16.6578 34.8987 15.8923C34.1864 15.1269 34.2254 13.9244 34.9863 13.2064C35.7471 12.4884 36.9414 12.5272 37.6537 13.2927C38.366 14.0581 38.327 15.2606 37.5661 15.9786Z" fill="white" stroke="#091747" stroke-width="1.5"/>
<path d="M31.9858 18.5603L34.5696 16.1221" stroke="#091747" stroke-width="1.5" stroke-linecap="round"/>
<path d="M30.3377 22.0029C29.3018 22.0032 28.4534 21.1565 28.4538 20.1007C28.4541 19.0449 29.303 18.1976 30.3389 18.1973C31.3748 18.1969 32.2232 19.0437 32.2228 20.0995C32.2225 21.1553 31.3736 22.0026 30.3377 22.0029Z" fill="white" stroke="#091747" stroke-width="1.5"/>
<path d="M24.5151 20.043L28.0551 20.0419" stroke="#091747" stroke-width="1.5" stroke-linecap="round"/>
<path d="M25.2921 2.75503C25.5299 3.78222 24.8951 4.80193 23.8853 5.0396C22.8755 5.27727 21.8585 4.64636 21.6207 3.61916C21.3828 2.59197 22.0177 1.57226 23.0274 1.3346C24.0372 1.09693 25.0542 1.72784 25.2921 2.75503Z" fill="white" stroke="#091747" stroke-width="1.5"/>
<path d="M24.7213 8.91016L23.9177 5.43924" stroke="#091747" stroke-width="1.5" stroke-linecap="round"/>
<path d="M26.8537 12.0647C26.3305 12.9769 25.1754 13.2857 24.2762 12.7631C23.3769 12.2405 23.0651 11.0793 23.5883 10.167C24.1115 9.25483 25.2666 8.94602 26.1659 9.46863C27.0651 9.99123 27.377 11.1525 26.8537 12.0647Z" fill="white" stroke="#091747" stroke-width="1.5"/>
<path d="M22.2571 16.1655L24.028 13.0779" stroke="#091747" stroke-width="1.5" stroke-linecap="round"/>
</svg>
