<svg width="40" height="40" viewBox="0 0 40 40" fill="none" xmlns="http://www.w3.org/2000/svg">
<path d="M7.85586 6.45747C8.98132 6.80059 9.6216 7.99992 9.27797 9.14055C8.93435 10.2812 7.73996 10.9212 6.6145 10.5781C5.48905 10.2349 4.84877 9.03561 5.19239 7.89498C5.53602 6.75435 6.73041 6.11435 7.85586 6.45747Z" stroke="white"/>
<path d="M12.7891 10.273L9.40161 9.24031" stroke="white" stroke-linecap="round"/>
<path d="M16.7862 9.86318C17.3767 10.8934 17.0248 12.2087 16.0043 12.8022C14.9839 13.3956 13.6771 13.0449 13.0867 12.0147C12.4962 10.9845 12.8481 9.66922 13.8685 9.07577C14.8889 8.48232 16.1957 8.83298 16.7862 9.86318Z" stroke="white"/>
<path d="M17.7969 16.0456L16.0279 12.9592" stroke="white" stroke-linecap="round"/>
<path d="M23.8266 21.4986C22.992 23.6383 20.5956 24.6887 18.4774 23.8521C16.3591 23.0156 15.3124 20.6055 16.147 18.4657C16.9816 16.326 19.3779 15.2756 21.4962 16.1122C23.6144 16.9487 24.6611 19.3588 23.8266 21.4986Z" stroke="white"/>
<path d="M2.26345 23.794C3.1247 22.9813 4.47658 23.0251 5.28298 23.8917C6.08938 24.7582 6.04514 26.1195 5.1839 26.9322C4.32265 27.7449 2.97077 27.701 2.16437 26.8345C1.35797 25.968 1.40221 24.6067 2.26345 23.794Z" stroke="white"/>
<path d="M8.01367 21.3953L5.42986 23.8334" stroke="white" stroke-linecap="round"/>
<path d="M9.66145 17.7026C10.8371 17.7023 11.7957 18.6625 11.7953 19.8548C11.7949 21.047 10.8357 22.0079 9.66009 22.0083C8.48447 22.0087 7.52585 21.0484 7.52623 19.8561C7.52661 18.6639 8.48583 17.703 9.66145 17.7026Z" fill="white" stroke="white"/>
<path d="M15.4844 19.9125L11.9444 19.9137" stroke="white" stroke-linecap="round"/>
<path d="M14.4231 37.3023C14.1544 36.1419 14.8713 34.9865 16.0168 34.7169C17.1624 34.4473 18.3126 35.1632 18.5812 36.3236C18.8499 37.4839 18.133 38.6394 16.9875 38.909C15.842 39.1786 14.6918 38.4626 14.4231 37.3023Z" stroke="white"/>
<path d="M15.2363 31.0898L16.04 34.5608" stroke="white" stroke-linecap="round"/>
<path d="M12.8892 27.8097C13.4806 26.7785 14.7878 26.4275 15.8072 27.02C16.8267 27.6125 17.1783 28.9274 16.5869 29.9586C15.9954 30.9897 14.6882 31.3407 13.6688 30.7482C12.6493 30.1558 12.2977 28.8408 12.8892 27.8097Z" stroke="white"/>
<path d="M17.7012 23.8346L15.9302 26.9221" stroke="white" stroke-linecap="round"/>
<path d="M32.1402 33.4458C31.0148 33.1027 30.3745 31.9033 30.7181 30.7627C31.0617 29.6221 32.2561 28.9821 33.3816 29.3252C34.507 29.6683 35.1473 30.8677 34.8037 32.0083C34.4601 33.1489 33.2657 33.7889 32.1402 33.4458Z" stroke="white"/>
<path d="M27.207 29.6302L30.5945 30.663" stroke="white" stroke-linecap="round"/>
<path d="M23.2099 30.0401C22.6194 29.0099 22.9713 27.6946 23.9918 27.1011C25.0122 26.5077 26.319 26.8584 26.9094 27.8886C27.4999 28.9188 27.148 30.2341 26.1276 30.8275C25.1071 31.421 23.8004 31.0703 23.2099 30.0401Z" stroke="white"/>
<path d="M22.1992 23.8577L23.9682 26.9441" stroke="white" stroke-linecap="round"/>
<path d="M37.7365 16.1616C36.8753 16.9743 35.5234 16.9304 34.717 16.0639C33.9106 15.1974 33.9549 13.8361 34.8161 13.0234C35.6773 12.2107 37.0292 12.2545 37.8356 13.1211C38.642 13.9876 38.5978 15.3489 37.7365 16.1616Z" stroke="white"/>
<path d="M31.9863 18.5603L34.5701 16.1221" stroke="white" stroke-linecap="round"/>
<path d="M30.3366 22.2529C29.161 22.2533 28.2024 21.293 28.2027 20.1008C28.2031 18.9086 29.1623 17.9477 30.338 17.9473C31.5136 17.9469 32.4722 18.9072 32.4718 20.0994C32.4714 21.2917 31.5122 22.2526 30.3366 22.2529Z" stroke="white"/>
<path d="M24.5156 20.0431L28.0556 20.0419" stroke="white" stroke-linecap="round"/>
<path d="M25.5359 2.69772C25.8045 3.85807 25.0877 5.01351 23.9421 5.28313C22.7966 5.55274 21.6464 4.83675 21.3778 3.67641C21.1091 2.51607 21.826 1.36063 22.9715 1.09101C24.117 0.821392 25.2672 1.53738 25.5359 2.69772Z" stroke="white"/>
<path d="M24.7207 8.91016L23.9171 5.43924" stroke="white" stroke-linecap="round"/>
<path d="M27.0698 12.1903C26.4784 13.2215 25.1712 13.5725 24.1517 12.98C23.1323 12.3875 22.7807 11.0726 23.3721 10.0414C23.9636 9.01027 25.2707 8.65931 26.2902 9.25177C27.3097 9.84422 27.6613 11.1592 27.0698 12.1903Z" stroke="white"/>
<path d="M22.2578 16.1654L24.0288 13.0779" stroke="white" stroke-linecap="round"/>
</svg>
