<svg width="24" height="24" viewBox="0 0 24 24" fill="none" xmlns="http://www.w3.org/2000/svg">
<g clip-path="url(#clip0_259_859)">
<path fill-rule="evenodd" clip-rule="evenodd" d="M11.9997 0.5C9.15088 0.501478 6.39552 1.51046 4.22626 3.34652C2.057 5.18259 0.615293 7.72601 0.158934 10.522C-0.297425 13.318 0.261316 16.1842 1.73526 18.6082C3.2092 21.0321 5.50223 22.8558 8.20432 23.753C8.80044 23.8636 9.02499 23.4941 9.02499 23.18C9.02499 22.8658 9.01306 21.955 9.00909 20.9592C5.67079 21.6804 4.96538 19.5505 4.96538 19.5505C4.42091 18.1674 3.63403 17.8039 3.63403 17.8039C2.5451 17.065 3.7155 17.0788 3.7155 17.0788C4.92166 17.1637 5.55555 18.3097 5.55555 18.3097C6.6246 20.1333 8.36328 19.6058 9.04684 19.2976C9.15414 18.5251 9.46612 17.9995 9.80989 17.7012C7.14322 17.4008 4.34143 16.3774 4.34143 11.8054C4.3249 10.6197 4.76741 9.47305 5.5774 8.60268C5.4542 8.30236 5.04287 7.08923 5.69463 5.44143C5.69463 5.44143 6.70209 5.12135 8.99519 6.66444C10.9621 6.12962 13.0373 6.12962 15.0041 6.66444C17.2952 5.12135 18.3007 5.44143 18.3007 5.44143C18.9544 7.08528 18.5431 8.29841 18.4199 8.60268C19.2325 9.47319 19.6759 10.6218 19.6579 11.8094C19.6579 16.3912 16.8501 17.4008 14.1795 17.6952C14.6087 18.0667 14.9922 18.7918 14.9922 19.9061C14.9922 21.5026 14.9783 22.7868 14.9783 23.18C14.9783 23.4981 15.1949 23.8695 15.8029 23.753C18.5053 22.8557 20.7986 21.0317 22.2725 18.6073C23.7464 16.183 24.3049 13.3163 23.848 10.5201C23.3911 7.7238 21.9487 5.18035 19.7787 3.34461C17.6087 1.50886 14.8527 0.500541 12.0036 0.5H11.9997Z" fill="white"/>
<path d="M4.54358 17.6321C4.51775 17.6914 4.42237 17.7092 4.34487 17.6677C4.26738 17.6262 4.20976 17.5491 4.23758 17.4879C4.26539 17.4266 4.35879 17.4108 4.43628 17.4523C4.51378 17.4938 4.57339 17.5729 4.54358 17.6321Z" fill="white"/>
<path d="M5.03123 18.1711C4.99008 18.1918 4.943 18.1975 4.89805 18.1874C4.8531 18.1773 4.81308 18.152 4.78483 18.1158C4.70734 18.0328 4.69143 17.9182 4.75104 17.8669C4.81066 17.8155 4.91797 17.8392 4.99546 17.9222C5.07296 18.0052 5.09084 18.1198 5.03123 18.1711Z" fill="white"/>
<path d="M5.50486 18.8568C5.43133 18.9082 5.30614 18.8568 5.23659 18.754C5.21736 18.7356 5.20207 18.7135 5.19162 18.6891C5.18117 18.6646 5.17578 18.6383 5.17578 18.6118C5.17578 18.5852 5.18117 18.5589 5.19162 18.5345C5.20207 18.5101 5.21736 18.488 5.23659 18.4695C5.31011 18.4201 5.43531 18.4695 5.50486 18.5703C5.5744 18.6711 5.57639 18.8054 5.50486 18.8568V18.8568Z" fill="white"/>
<path d="M6.14563 19.5207C6.08005 19.5939 5.94692 19.5741 5.83763 19.4753C5.72834 19.3765 5.7025 19.2422 5.76808 19.171C5.83365 19.0999 5.96679 19.1197 6.08005 19.2165C6.19331 19.3133 6.21517 19.4496 6.14563 19.5207V19.5207Z" fill="white"/>
<path d="M7.04617 19.9079C7.01637 20.0008 6.88124 20.0423 6.74612 20.0027C6.611 19.9632 6.52158 19.8526 6.54741 19.7577C6.57325 19.6629 6.71036 19.6194 6.84747 19.6629C6.98457 19.7064 7.07201 19.8111 7.04617 19.9079Z" fill="white"/>
<path d="M8.02832 19.9752C8.02832 20.072 7.91705 20.155 7.77398 20.1569C7.63091 20.1589 7.51367 20.0799 7.51367 19.9831C7.51367 19.8863 7.62494 19.8033 7.76801 19.8013C7.91108 19.7993 8.02832 19.8764 8.02832 19.9752Z" fill="white"/>
<path d="M8.94238 19.8229C8.96027 19.9197 8.86091 20.0205 8.71784 20.0442C8.57477 20.0679 8.44959 20.0106 8.4317 19.9158C8.41382 19.8209 8.51715 19.7182 8.65624 19.6925C8.79534 19.6668 8.9245 19.7261 8.94238 19.8229Z" fill="white"/>
</g>
<defs>
<clipPath id="clip0_259_859">
<rect width="24" height="24" fill="white"/>
</clipPath>
</defs>
</svg>
