<svg width="423" height="373" viewBox="0 0 423 373" fill="none" xmlns="http://www.w3.org/2000/svg">
<path d="M324.441 277.608C331.802 277.608 337.769 271.641 337.769 264.281C337.769 256.92 331.802 250.953 324.441 250.953C317.08 250.953 311.113 256.92 311.113 264.281C311.113 271.641 317.08 277.608 324.441 277.608Z" fill="black" stroke="white"/>
<path d="M369.231 305.018C375.569 305.018 380.707 299.88 380.707 293.542C380.707 287.203 375.569 282.065 369.231 282.065C362.892 282.065 357.754 287.203 357.754 293.542C357.754 299.88 362.892 305.018 369.231 305.018Z" fill="black" stroke="white"/>
<path d="M335.744 271.665C343.104 276.473 352.603 282.678 359.603 287.251" stroke="white"/>
<path d="M273.275 242.641C279.614 242.641 284.752 237.503 284.752 231.164C284.752 224.826 279.614 219.688 273.275 219.688C266.937 219.688 261.799 224.826 261.799 231.164C261.799 237.503 266.937 242.641 273.275 242.641Z" fill="black" stroke="white"/>
<path d="M313.086 256.931C304.137 251.138 291.781 243.14 283.219 237.598" stroke="white"/>
<path d="M412.004 306.171C417.524 306.171 421.999 301.695 421.999 296.175C421.999 290.654 417.524 286.179 412.004 286.179C406.483 286.179 402.008 290.654 402.008 296.175C402.008 301.695 406.483 306.171 412.004 306.171Z" fill="black" stroke="white"/>
<path d="M380.693 294.247C387.325 294.655 395.593 295.164 401.967 295.557" stroke="white"/>
<path d="M398.812 339.515C404.333 339.515 408.808 335.04 408.808 329.519C408.808 323.999 404.333 319.524 398.812 319.524C393.292 319.524 388.816 323.999 388.816 329.519C388.816 335.04 393.292 339.515 398.812 339.515Z" fill="black" stroke="white"/>
<path d="M376.697 302.62C381.558 308.532 387.831 316.162 392.454 321.785" stroke="white"/>
<path d="M220.961 207.233C226.481 207.233 230.956 202.757 230.956 197.237C230.956 191.716 226.481 187.241 220.961 187.241C215.44 187.241 210.965 191.716 210.965 197.237C210.965 202.757 215.44 207.233 220.961 207.233Z" fill="black" stroke="white"/>
<path d="M263.437 224.783C253.61 218.41 238.667 208.719 229.375 202.694" stroke="white"/>
<path d="M243.344 167.748C247.842 167.748 251.489 164.101 251.489 159.603C251.489 155.105 247.842 151.458 243.344 151.458C238.846 151.458 235.199 155.105 235.199 159.603C235.199 164.101 238.846 167.748 243.344 167.748Z" fill="black" stroke="white"/>
<path d="M226.15 188.508C230.076 181.907 235.401 172.955 239.079 166.77" stroke="white"/>
<path d="M174.035 225.262C178.534 225.262 182.18 221.616 182.18 217.118C182.18 212.619 178.534 208.973 174.035 208.973C169.537 208.973 165.891 212.619 165.891 217.118C165.891 221.616 169.537 225.262 174.035 225.262Z" fill="black" stroke="white"/>
<path d="M211.69 201.164C202.929 204.876 189.939 210.379 181.734 213.855" stroke="white"/>
<path d="M252.817 127.987C256.293 127.987 259.111 125.169 259.111 121.693C259.111 118.217 256.293 115.4 252.817 115.4C249.341 115.4 246.523 118.217 246.523 121.693C246.523 125.169 249.341 127.987 252.817 127.987Z" fill="black" stroke="white"/>
<path d="M245.354 151.563C247.113 144.521 249.635 134.43 251.249 127.969" stroke="white"/>
<path d="M282.592 185.527C286.068 185.527 288.886 182.709 288.886 179.234C288.886 175.758 286.068 172.94 282.592 172.94C279.117 172.94 276.299 175.758 276.299 179.234C276.299 182.709 279.117 185.527 282.592 185.527Z" fill="black" stroke="white"/>
<path d="M250.91 163.388C258.484 167.176 269.971 172.921 276.833 176.353" stroke="white"/>
<path d="M282.121 142.611C284.779 142.611 286.934 140.457 286.934 137.799C286.934 135.141 284.779 132.986 282.121 132.986C279.463 132.986 277.309 135.141 277.309 137.799C277.309 140.457 279.463 142.611 282.121 142.611Z" fill="black" stroke="white"/>
<path d="M258.469 124.799C264.057 127.87 272.499 132.509 277.642 135.336" stroke="white"/>
<path d="M261.785 93.6006C264.443 93.6006 266.598 91.4459 266.598 88.7881C266.598 86.1302 264.443 83.9756 261.785 83.9756C259.127 83.9756 256.973 86.1302 256.973 88.7881C256.973 91.4459 259.127 93.6006 261.785 93.6006Z" fill="black" stroke="white"/>
<path d="M254.545 115.349C256.276 108.999 258.9 99.3702 260.468 93.6172" stroke="white"/>
<path d="M275.669 60.9502C277.304 60.9502 278.63 59.6242 278.63 57.9886C278.63 56.353 277.304 55.0271 275.669 55.0271C274.033 55.0271 272.707 56.353 272.707 57.9886C272.707 59.6242 274.033 60.9502 275.669 60.9502Z" fill="black" stroke="white"/>
<path d="M263.832 84.2436C266.728 77.818 271.937 66.2622 274.361 60.886" stroke="white"/>
<path d="M296.719 64.4584C297.537 64.4584 298.2 63.7954 298.2 62.9776C298.2 62.1598 297.537 61.4968 296.719 61.4968C295.901 61.4968 295.238 62.1598 295.238 62.9776C295.238 63.7954 295.901 64.4584 296.719 64.4584Z" fill="black" stroke="white"/>
<path d="M278.596 58.6824C283.115 59.7535 291.635 61.7729 295.146 62.6052" stroke="white"/>
<path d="M285.17 79.2757C285.988 79.2757 286.651 78.6128 286.651 77.795C286.651 76.9772 285.988 76.3142 285.17 76.3142C284.352 76.3142 283.689 76.9772 283.689 77.795C283.689 78.6128 284.352 79.2757 285.17 79.2757Z" fill="black" stroke="white"/>
<path d="M276.988 60.7427C279.028 64.9945 282.874 73.011 284.459 76.3147" stroke="white"/>
<path d="M261.371 42.534C262.189 42.534 262.852 41.8711 262.852 41.0533C262.852 40.2355 262.189 39.5725 261.371 39.5725C260.554 39.5725 259.891 40.2355 259.891 41.0533C259.891 41.8711 260.554 42.534 261.371 42.534Z" fill="black" stroke="white"/>
<path d="M273.68 55.6336C270.611 51.9982 264.824 45.1439 262.439 42.3191" stroke="white"/>
<path d="M266.076 71.5436C266.894 71.5436 267.557 70.8806 267.557 70.0628C267.557 69.245 266.894 68.582 266.076 68.582C265.259 68.582 264.596 69.245 264.596 70.0628C264.596 70.8806 265.259 71.5436 266.076 71.5436Z" fill="black" stroke="white"/>
<path d="M273.818 60.3167C271.815 62.8382 268.692 66.7695 267.094 68.7815" stroke="white"/>
<path d="M281.242 39.3234C282.06 39.3234 282.723 38.6604 282.723 37.8426C282.723 37.0248 282.06 36.3618 281.242 36.3618C280.425 36.3618 279.762 37.0248 279.762 37.8426C279.762 38.6604 280.425 39.3234 281.242 39.3234Z" fill="black" stroke="white"/>
<path d="M276.537 54.8407C277.762 50.4141 279.944 42.5292 280.84 39.2913" stroke="white"/>
<path d="M290.492 45.0126C291.31 45.0126 291.973 44.3496 291.973 43.5318C291.973 42.714 291.31 42.051 290.492 42.051C289.675 42.051 289.012 42.714 289.012 43.5318C289.012 44.3496 289.675 45.0126 290.492 45.0126Z" fill="black" stroke="white"/>
<path d="M277.984 55.7291C281.241 52.5528 287.043 46.8949 289.425 44.5715" stroke="white"/>
<path d="M292.727 73.61C293.545 73.61 294.208 72.947 294.208 72.1292C294.208 71.3114 293.545 70.6484 292.727 70.6484C291.909 70.6484 291.246 71.3114 291.246 72.1292C291.246 72.947 291.909 73.61 292.727 73.61Z" fill="black" stroke="white"/>
<path d="M278.043 59.9551C281.706 62.9905 288.611 68.7138 291.457 71.0725" stroke="white"/>
<path d="M253.59 59.4515C254.408 59.4515 255.071 58.7886 255.071 57.9708C255.071 57.153 254.408 56.49 253.59 56.49C252.772 56.49 252.109 57.153 252.109 57.9708C252.109 58.7886 252.772 59.4515 253.59 59.4515Z" fill="black" stroke="white"/>
<path d="M272.598 57.9864C267.859 57.9825 258.923 57.9754 255.24 57.9724" stroke="white"/>
<path d="M296.088 54.1485C296.906 54.1485 297.569 53.4856 297.569 52.6678C297.569 51.85 296.906 51.187 296.088 51.187C295.27 51.187 294.607 51.85 294.607 52.6678C294.607 53.4856 295.27 54.1485 296.088 54.1485Z" fill="black" stroke="white"/>
<path d="M278.857 57.1573C283.344 55.9882 291.336 53.9057 294.618 53.0505" stroke="white"/>
<path d="M255.034 50.0831C255.851 50.0831 256.514 49.4202 256.514 48.6023C256.514 47.7845 255.851 47.1216 255.034 47.1216C254.216 47.1216 253.553 47.7845 253.553 48.6023C253.553 49.4202 254.216 50.0831 255.034 50.0831Z" fill="black" stroke="white"/>
<path d="M272.799 56.6832C268.369 54.6684 260.016 50.8695 256.574 49.304" stroke="white"/>
<path d="M270.696 38.5223C271.513 38.5223 272.176 37.8594 272.176 37.0416C272.176 36.2238 271.513 35.5608 270.696 35.5608C269.878 35.5608 269.215 36.2238 269.215 37.0416C269.215 37.8594 269.878 38.5223 270.696 38.5223Z" fill="black" stroke="white"/>
<path d="M274.977 55.076C273.91 50.5795 271.898 42.1016 271.068 38.6077" stroke="white"/>
<path d="M318.504 63.6664C319.322 63.6664 319.985 63.0034 319.985 62.1856C319.985 61.3678 319.322 60.7048 318.504 60.7048C317.686 60.7048 317.023 61.3678 317.023 62.1856C317.023 63.0034 317.686 63.6664 318.504 63.6664Z" fill="black" stroke="white"/>
<path d="M298.428 62.9159C302.52 62.7671 312.838 62.3919 316.861 62.2456" stroke="white"/>
<path d="M332.811 62.8292C333.629 62.8292 334.292 62.1662 334.292 61.3484C334.292 60.5306 333.629 59.8677 332.811 59.8677C331.993 59.8677 331.33 60.5306 331.33 61.3484C331.33 62.1662 331.993 62.8292 332.811 62.8292Z" fill="black" stroke="white"/>
<path d="M320.035 62.0964C322.746 61.9377 328.366 61.6089 331.161 61.4453" stroke="white"/>
<path d="M303.946 89.4044C304.763 89.4044 305.426 88.7414 305.426 87.9236C305.426 87.1058 304.763 86.4429 303.946 86.4429C303.128 86.4429 302.465 87.1058 302.465 87.9236C302.465 88.7414 303.128 89.4044 303.946 89.4044Z" fill="black" stroke="white"/>
<path d="M286.645 78.5898C290.172 80.4925 299.066 85.2896 302.534 87.1599" stroke="white"/>
<path d="M317.91 93.6024C318.728 93.6024 319.391 92.9394 319.391 92.1216C319.391 91.3038 318.728 90.6409 317.91 90.6409C317.093 90.6409 316.43 91.3038 316.43 92.1216C316.43 92.9394 317.093 93.6024 317.91 93.6024Z" fill="black" stroke="white"/>
<path d="M305.443 88.3728C308.144 89.185 313.806 90.8876 316.468 91.688" stroke="white"/>
<path d="M251.621 22.7872C252.439 22.7872 253.102 22.1243 253.102 21.3065C253.102 20.4886 252.439 19.8257 251.621 19.8257C250.804 19.8257 250.141 20.4886 250.141 21.3065C250.141 22.1243 250.804 22.7872 251.621 22.7872Z" fill="black" stroke="white"/>
<path d="M260.607 39.5038C258.775 35.7943 254.158 26.4416 252.357 22.7952" stroke="white"/>
<path d="M245.698 9.60069C246.515 9.60069 247.178 8.93773 247.178 8.11993C247.178 7.30212 246.515 6.63916 245.698 6.63916C244.88 6.63916 244.217 7.30212 244.217 8.11993C244.217 8.93773 244.88 9.60069 245.698 9.60069Z" fill="black" stroke="white"/>
<path d="M250.99 19.8951C249.843 17.3439 247.44 11.9961 246.311 9.48169" stroke="white"/>
<path d="M249.867 73.159C250.685 73.159 251.348 72.4961 251.348 71.6783C251.348 70.8605 250.685 70.1975 249.867 70.1975C249.05 70.1975 248.387 70.8605 248.387 71.6783C248.387 72.4961 249.05 73.159 249.867 73.159Z" fill="black" stroke="white"/>
<path d="M264.583 70.2117C261.574 70.5117 254.802 71.1867 251.604 71.5054" stroke="white"/>
<path d="M286.688 19.4396C287.506 19.4396 288.169 18.7766 288.169 17.9588C288.169 17.141 287.506 16.478 286.688 16.478C285.87 16.478 285.207 17.141 285.207 17.9588C285.207 18.7766 285.87 19.4396 286.688 19.4396Z" fill="black" stroke="white"/>
<path d="M281.67 36.2822C282.693 32.547 285.272 23.1293 286.278 19.4575" stroke="white"/>
<path d="M289.809 6.19689C290.627 6.19689 291.29 5.53392 291.29 4.71612C291.29 3.89831 290.627 3.23535 289.809 3.23535C288.991 3.23535 288.328 3.89831 288.328 4.71612C288.328 5.53392 288.991 6.19689 289.809 6.19689Z" fill="black" stroke="white"/>
<path d="M287.07 16.3344C287.669 13.7929 288.821 8.90293 289.421 6.35327" stroke="white"/>
<path d="M304.52 30.1168C305.338 30.1168 306.001 29.4538 306.001 28.636C306.001 27.8182 305.338 27.1553 304.52 27.1553C303.702 27.1553 303.039 27.8182 303.039 28.636C303.039 29.4538 303.702 30.1168 304.52 30.1168Z" fill="black" stroke="white"/>
<path d="M291.592 42.3632C294.176 39.6198 300.613 32.7848 303.306 29.9258" stroke="white"/>
<path d="M313.744 20.2491C314.562 20.2491 315.225 19.5862 315.225 18.7684C315.225 17.9506 314.562 17.2876 313.744 17.2876C312.927 17.2876 312.264 17.9506 312.264 18.7684C312.264 19.5862 312.927 20.2491 313.744 20.2491Z" fill="black" stroke="white"/>
<path d="M305.65 27.4256C307.42 25.5318 310.825 21.8879 312.601 19.988" stroke="white"/>
<path d="M314.184 78.5543C315.002 78.5543 315.665 77.8913 315.665 77.0735C315.665 76.2557 315.002 75.5928 314.184 75.5928C313.366 75.5928 312.703 76.2557 312.703 77.0735C312.703 77.8913 313.366 78.5543 314.184 78.5543Z" fill="black" stroke="white"/>
<path d="M294.412 72.5168C298.442 73.4457 308.605 75.7876 312.566 76.7006" stroke="white"/>
<path d="M328.705 80.6085C329.523 80.6085 330.186 79.9455 330.186 79.1277C330.186 78.3099 329.523 77.647 328.705 77.647C327.888 77.647 327.225 78.3099 327.225 79.1277C327.225 79.9455 327.888 80.6085 328.705 80.6085Z" fill="black" stroke="white"/>
<path d="M315.74 77.2939C318.55 77.6914 324.439 78.5246 327.209 78.9164" stroke="white"/>
<path d="M235.61 48.0707C236.427 48.0707 237.09 47.4077 237.09 46.5899C237.09 45.7721 236.427 45.1091 235.61 45.1091C234.792 45.1091 234.129 45.7721 234.129 46.5899C234.129 47.4077 234.792 48.0707 235.61 48.0707Z" fill="black" stroke="white"/>
<path d="M252.177 57.0775C248.799 54.9395 240.283 49.5491 236.963 47.4475" stroke="white"/>
<path d="M225.645 37.588C226.463 37.588 227.126 36.925 227.126 36.1072C227.126 35.2894 226.463 34.6265 225.645 34.6265C224.827 34.6265 224.164 35.2894 224.164 36.1072C224.164 36.925 224.827 37.588 225.645 37.588Z" fill="black" stroke="white"/>
<path d="M234.386 45.304C232.474 43.2921 228.794 39.4211 226.875 37.4028" stroke="white"/>
<path d="M315.694 46.4982C316.511 46.4982 317.174 45.8352 317.174 45.0174C317.174 44.1996 316.511 43.5366 315.694 43.5366C314.876 43.5366 314.213 44.1996 314.213 45.0174C314.213 45.8352 314.876 46.4982 315.694 46.4982Z" fill="black" stroke="white"/>
<path d="M297.627 52.0675C301.31 50.6303 310.596 47.0067 314.217 45.594" stroke="white"/>
<path d="M328.659 41.5892C329.476 41.5892 330.139 40.9263 330.139 40.1085C330.139 39.2906 329.476 38.6277 328.659 38.6277C327.841 38.6277 327.178 39.2906 327.178 40.1085C327.178 40.9263 327.841 41.5892 328.659 41.5892Z" fill="black" stroke="white"/>
<path d="M317.082 44.4916C319.486 43.5815 324.415 41.7153 326.997 40.7375" stroke="white"/>
<path d="M240.571 33.4169C241.388 33.4169 242.051 32.7539 242.051 31.9361C242.051 31.1183 241.388 30.4553 240.571 30.4553C239.753 30.4553 239.09 31.1183 239.09 31.9361C239.09 32.7539 239.753 33.4169 240.571 33.4169Z" fill="black" stroke="white"/>
<path d="M253.896 47.2947C251.233 44.2252 244.598 36.5778 241.822 33.3789" stroke="white"/>
<path d="M232.221 21.3402C233.039 21.3402 233.702 20.6772 233.702 19.8594C233.702 19.0416 233.039 18.3787 232.221 18.3787C231.403 18.3787 230.74 19.0416 230.74 19.8594C230.74 20.6772 231.403 21.3402 232.221 21.3402Z" fill="black" stroke="white"/>
<path d="M239.547 30.4551C237.944 28.1374 234.86 23.6779 233.252 21.3528" stroke="white"/>
<path d="M267.575 17.4059C268.392 17.4059 269.055 16.7429 269.055 15.9251C269.055 15.1073 268.392 14.4443 267.575 14.4443C266.757 14.4443 266.094 15.1073 266.094 15.9251C266.094 16.7429 266.757 17.4059 267.575 17.4059Z" fill="black" stroke="white"/>
<path d="M270.45 35.3849C269.863 31.4179 268.384 21.4161 267.807 17.5166" stroke="white"/>
<path d="M265.305 3.55138C266.123 3.55138 266.786 2.88842 266.786 2.07061C266.786 1.25281 266.123 0.589844 265.305 0.589844C264.487 0.589844 263.824 1.25281 263.824 2.07061C263.824 2.88842 264.487 3.55138 265.305 3.55138Z" fill="black" stroke="white"/>
<path d="M267.33 14.442C266.9 11.8175 266.011 6.37607 265.568 3.67041" stroke="white"/>
<path d="M316.018 196.479C318.675 196.479 320.83 194.324 320.83 191.666C320.83 189.008 318.675 186.854 316.018 186.854C313.36 186.854 311.205 189.008 311.205 191.666C311.205 194.324 313.36 196.479 316.018 196.479Z" fill="black" stroke="white"/>
<path d="M288.725 181.514C295.283 183.953 305.535 187.767 311.429 189.959" stroke="white"/>
<path d="M123.462 259.042C126.938 259.042 129.755 256.224 129.755 252.748C129.755 249.272 126.938 246.454 123.462 246.454C119.986 246.454 117.168 249.272 117.168 252.748C117.168 256.224 119.986 259.042 123.462 259.042Z" fill="black" stroke="white"/>
<path d="M167.214 221.922C156.968 229.141 137.83 242.624 128.643 249.097" stroke="white"/>
<path d="M106.74 278.112C109.398 278.112 111.553 275.957 111.553 273.3C111.553 270.642 109.398 268.487 106.74 268.487C104.082 268.487 101.928 270.642 101.928 273.3C101.928 275.957 104.082 278.112 106.74 278.112Z" fill="black" stroke="white"/>
<path d="M119.415 257.723C116.477 261.334 112.56 266.148 109.863 269.464" stroke="white"/>
<path d="M130.588 223.94C133.246 223.94 135.4 221.785 135.4 219.127C135.4 216.469 133.246 214.315 130.588 214.315C127.93 214.315 125.775 216.469 125.775 219.127C125.775 221.785 127.93 223.94 130.588 223.94Z" fill="black" stroke="white"/>
<path d="M124.768 246.581C126.15 240.06 128.302 229.909 129.566 223.949" stroke="white"/>
<path d="M131.344 266.924C132.98 266.924 134.306 265.598 134.306 263.963C134.306 262.327 132.98 261.001 131.344 261.001C129.709 261.001 128.383 262.327 128.383 263.963C128.383 265.598 129.709 266.924 131.344 266.924Z" fill="black" stroke="white"/>
<path d="M111.252 271.588C116.246 269.693 124.149 266.693 128.401 265.079" stroke="white"/>
<path d="M75.7994 272.862C77.435 272.862 78.761 271.536 78.761 269.9C78.761 268.264 77.435 266.938 75.7994 266.938C74.1638 266.938 72.8379 268.264 72.8379 269.9C72.8379 271.536 74.1638 272.862 75.7994 272.862Z" fill="black" stroke="white"/>
<path d="M101.905 272.769C95.5141 272.067 84.4298 270.849 78.9922 270.251" stroke="white"/>
<path d="M96.6764 247.542C98.312 247.542 99.6379 246.216 99.6379 244.581C99.6379 242.945 98.312 241.619 96.6764 241.619C95.0408 241.619 93.7148 242.945 93.7148 244.581C93.7148 246.216 95.0408 247.542 96.6764 247.542Z" fill="black" stroke="white"/>
<path d="M105.081 268.557C102.981 262.567 99.4338 252.444 97.6973 247.489" stroke="white"/>
<path d="M130.581 301.226C132.216 301.226 133.542 299.9 133.542 298.264C133.542 296.628 132.216 295.302 130.581 295.302C128.945 295.302 127.619 296.628 127.619 298.264C127.619 299.9 128.945 301.226 130.581 301.226Z" fill="black" stroke="white"/>
<path d="M110.26 276.984C115.233 282.192 124.178 291.558 128.34 295.916" stroke="white"/>
<path d="M91.3502 304.421C92.9858 304.421 94.3117 303.095 94.3117 301.46C94.3117 299.824 92.9858 298.498 91.3502 298.498C89.7146 298.498 88.3887 299.824 88.3887 301.46C88.3887 303.095 89.7146 304.421 91.3502 304.421Z" fill="black" stroke="white"/>
<path d="M104.335 277.7C101.156 283.516 95.6424 293.604 92.9375 298.552" stroke="white"/>
<path d="M108.745 287.647C110.38 287.647 111.706 286.321 111.706 284.685C111.706 283.05 110.38 281.724 108.745 281.724C107.109 281.724 105.783 283.05 105.783 284.685C105.783 286.321 107.109 287.647 108.745 287.647Z" fill="black" stroke="white"/>
<path d="M107.604 278.195C107.807 279.352 108.019 280.554 108.204 281.604" stroke="white"/>
<path d="M145.903 246.089C146.72 246.089 147.383 245.426 147.383 244.608C147.383 243.79 146.72 243.127 145.903 243.127C145.085 243.127 144.422 243.79 144.422 244.608C144.422 245.426 145.085 246.089 145.903 246.089Z" fill="black" stroke="white"/>
<path d="M133.129 261.59C136.228 257.471 142.501 249.133 144.922 245.916" stroke="white"/>
<path d="M153.614 272.198C154.431 272.198 155.094 271.535 155.094 270.717C155.094 269.899 154.431 269.236 153.614 269.236C152.796 269.236 152.133 269.899 152.133 270.717C152.133 271.535 152.796 272.198 153.614 272.198Z" fill="black" stroke="white"/>
<path d="M134.439 264.902C139.316 266.381 148.596 269.196 152.165 270.278" stroke="white"/>
<path d="M161.342 237.989C162.16 237.989 162.823 237.326 162.823 236.509C162.823 235.691 162.16 235.028 161.342 235.028C160.524 235.028 159.861 235.691 159.861 236.509C159.861 237.326 160.524 237.989 161.342 237.989Z" fill="black" stroke="white"/>
<path d="M147.33 243.861C150.196 242.357 156.645 238.973 159.691 237.375" stroke="white"/>
<path d="M165.481 248.43C166.299 248.43 166.962 247.767 166.962 246.949C166.962 246.131 166.299 245.468 165.481 245.468C164.663 245.468 164 246.131 164 246.949C164 247.767 164.663 248.43 165.481 248.43Z" fill="black" stroke="white"/>
<path d="M147.439 244.792C151.117 245.232 160.388 246.341 164.003 246.773" stroke="white"/>
<path d="M150.953 229.71C151.771 229.71 152.434 229.047 152.434 228.23C152.434 227.412 151.771 226.749 150.953 226.749C150.136 226.749 149.473 227.412 149.473 228.23C149.473 229.047 150.136 229.71 150.953 229.71Z" fill="black" stroke="white"/>
<path d="M146.371 243.097C147.309 240.056 149.418 233.214 150.414 229.982" stroke="white"/>
<path d="M138.907 230.914C139.724 230.914 140.387 230.251 140.387 229.433C140.387 228.615 139.724 227.952 138.907 227.952C138.089 227.952 137.426 228.615 137.426 229.433C137.426 230.251 138.089 230.914 138.907 230.914Z" fill="black" stroke="white"/>
<path d="M145.26 243.208C143.961 240.39 141.037 234.051 139.656 231.058" stroke="white"/>
<path d="M174.741 230.384C175.558 230.384 176.221 229.721 176.221 228.903C176.221 228.085 175.558 227.422 174.741 227.422C173.923 227.422 173.26 228.085 173.26 228.903C173.26 229.721 173.923 230.384 174.741 230.384Z" fill="black" stroke="white"/>
<path d="M162.775 235.694C165.367 234.223 170.8 231.138 173.355 229.688" stroke="white"/>
<path d="M182.479 225.626C183.297 225.626 183.96 224.963 183.96 224.145C183.96 223.327 183.297 222.664 182.479 222.664C181.661 222.664 180.998 223.327 180.998 224.145C180.998 224.963 181.661 225.626 182.479 225.626Z" fill="black" stroke="white"/>
<path d="M176.23 227.985C177.636 227.121 179.724 225.837 181.093 224.996" stroke="white"/>
<path d="M181.676 246.139C182.494 246.139 183.157 245.476 183.157 244.658C183.157 243.84 182.494 243.177 181.676 243.177C180.858 243.177 180.195 243.84 180.195 244.658C180.195 245.476 180.858 246.139 181.676 246.139Z" fill="black" stroke="white"/>
<path d="M166.975 246.738C169.982 246.313 176.749 245.356 179.944 244.904" stroke="white"/>
<path d="M190.948 245.022C191.765 245.022 192.428 244.359 192.428 243.541C192.428 242.723 191.765 242.06 190.948 242.06C190.13 242.06 189.467 242.723 189.467 243.541C189.467 244.359 190.13 245.022 190.948 245.022Z" fill="black" stroke="white"/>
<path d="M183.465 244.443C185.148 244.241 187.65 243.939 189.289 243.741" stroke="white"/>
<path d="M158.342 216.323C159.16 216.323 159.823 215.66 159.823 214.843C159.823 214.025 159.16 213.362 158.342 213.362C157.524 213.362 156.861 214.025 156.861 214.843C156.861 215.66 157.524 216.323 158.342 216.323Z" fill="black" stroke="white"/>
<path d="M151.744 226.796C153.173 224.207 156.169 218.778 157.578 216.225" stroke="white"/>
<path d="M162.369 208.223C163.187 208.223 163.85 207.561 163.85 206.743C163.85 205.925 163.187 205.262 162.369 205.262C161.552 205.262 160.889 205.925 160.889 206.743C160.889 207.561 161.552 208.223 162.369 208.223Z" fill="black" stroke="white"/>
<path d="M159.117 213.281C159.849 211.81 160.936 209.624 161.648 208.191" stroke="white"/>
<path d="M141.539 215.825C142.357 215.825 143.02 215.162 143.02 214.344C143.02 213.526 142.357 212.863 141.539 212.863C140.722 212.863 140.059 213.526 140.059 214.344C140.059 215.162 140.722 215.825 141.539 215.825Z" fill="black" stroke="white"/>
<path d="M139.188 227.818C139.697 224.898 140.765 218.779 141.267 215.902" stroke="white"/>
<path d="M143.715 206.88C144.533 206.88 145.196 206.218 145.196 205.4C145.196 204.582 144.533 203.919 143.715 203.919C142.897 203.919 142.234 204.582 142.234 205.4C142.234 206.218 142.897 206.88 143.715 206.88Z" fill="black" stroke="white"/>
<path d="M141.959 212.619C142.354 210.995 142.94 208.581 143.325 206.999" stroke="white"/>
<path d="M174.1 270.525C174.918 270.525 175.581 269.862 175.581 269.044C175.581 268.226 174.918 267.563 174.1 267.563C173.282 267.563 172.619 268.226 172.619 269.044C172.619 269.862 173.282 270.525 174.1 270.525Z" fill="black" stroke="white"/>
<path d="M155.221 270.586C159.069 270.272 168.772 269.48 172.555 269.171" stroke="white"/>
<path d="M166.36 262.409C167.177 262.409 167.84 261.746 167.84 260.928C167.84 260.11 167.177 259.447 166.36 259.447C165.542 259.447 164.879 260.11 164.879 260.928C164.879 261.746 165.542 262.409 166.36 262.409Z" fill="black" stroke="white"/>
<path d="M154.791 269.813C157.158 267.996 162.482 263.906 164.997 261.975" stroke="white"/>
<path d="M172.127 280.209C172.945 280.209 173.608 279.546 173.608 278.728C173.608 277.91 172.945 277.247 172.127 277.247C171.309 277.247 170.646 277.91 170.646 278.728C170.646 279.546 171.309 280.209 172.127 280.209Z" fill="black" stroke="white"/>
<path d="M155.066 271.346C158.545 272.851 167.314 276.645 170.734 278.124" stroke="white"/>
<path d="M160.416 285.697C161.234 285.697 161.897 285.034 161.897 284.216C161.897 283.398 161.234 282.735 160.416 282.735C159.599 282.735 158.936 283.398 158.936 284.216C158.936 285.034 159.599 285.697 160.416 285.697Z" fill="black" stroke="white"/>
<path d="M154.34 272.162C155.656 274.773 158.415 280.248 159.713 282.822" stroke="white"/>
<path d="M190.766 271.877C191.584 271.877 192.247 271.214 192.247 270.396C192.247 269.578 191.584 268.915 190.766 268.915C189.948 268.915 189.285 269.578 189.285 270.396C189.285 271.214 189.948 271.877 190.766 271.877Z" fill="black" stroke="white"/>
<path d="M175.639 269.169C178.734 269.42 185.697 269.984 188.986 270.251" stroke="white"/>
<path d="M182.832 260.368C183.65 260.368 184.313 259.705 184.313 258.887C184.313 258.069 183.65 257.406 182.832 257.406C182.015 257.406 181.352 258.069 181.352 258.887C181.352 259.705 182.015 260.368 182.832 260.368Z" fill="black" stroke="white"/>
<path d="M167.879 260.739C170.937 260.36 177.818 259.508 181.068 259.105" stroke="white"/>
<path d="M188.766 284.008C189.584 284.008 190.247 283.345 190.247 282.527C190.247 281.71 189.584 281.047 188.766 281.047C187.948 281.047 187.285 281.71 187.285 282.527C187.285 283.345 187.948 284.008 188.766 284.008Z" fill="black" stroke="white"/>
<path d="M173.662 279.079C176.751 279.784 183.702 281.372 186.984 282.121" stroke="white"/>
<path d="M175.627 292.259C176.445 292.259 177.108 291.596 177.108 290.778C177.108 289.96 176.445 289.297 175.627 289.297C174.809 289.297 174.146 289.96 174.146 290.778C174.146 291.596 174.809 292.259 175.627 292.259Z" fill="black" stroke="white"/>
<path d="M161.82 284.822C164.644 286.04 170.999 288.782 173.999 290.076" stroke="white"/>
<path d="M47.2171 278.286C48.0349 278.286 48.6979 277.623 48.6979 276.805C48.6979 275.987 48.0349 275.324 47.2171 275.324C46.3993 275.324 45.7363 275.987 45.7363 276.805C45.7363 277.623 46.3993 278.286 47.2171 278.286Z" fill="black" stroke="white"/>
<path d="M72.7386 270.639C66.6327 272.114 53.1367 275.375 48.6777 276.452" stroke="white"/>
<path d="M60.8929 255.461C61.7107 255.461 62.3736 254.798 62.3736 253.98C62.3736 253.162 61.7107 252.499 60.8929 252.499C60.0751 252.499 59.4121 253.162 59.4121 253.98C59.4121 254.798 60.0751 255.461 60.8929 255.461Z" fill="black" stroke="white"/>
<path d="M73.7251 267.687C70.5252 264.269 64.4922 257.826 62.0059 255.17" stroke="white"/>
<path d="M39.2855 294.381C40.1033 294.381 40.7662 293.718 40.7662 292.9C40.7662 292.083 40.1033 291.42 39.2855 291.42C38.4676 291.42 37.8047 292.083 37.8047 292.9C37.8047 293.718 38.4676 294.381 39.2855 294.381Z" fill="black" stroke="white"/>
<path d="M46.4863 278.291C44.9518 281.403 41.4193 288.57 39.9473 291.556" stroke="white"/>
<path d="M31.3968 286.608C32.2146 286.608 32.8775 285.945 32.8775 285.127C32.8775 284.309 32.2146 283.646 31.3968 283.646C30.579 283.646 29.916 284.309 29.916 285.127C29.916 285.945 30.579 286.608 31.3968 286.608Z" fill="black" stroke="white"/>
<path d="M45.7571 277.573C42.697 279.183 35.6524 282.888 32.7168 284.432" stroke="white"/>
<path d="M28.469 275.225C29.2869 275.225 29.9498 274.562 29.9498 273.744C29.9498 272.927 29.2869 272.264 28.469 272.264C27.6512 272.264 26.9883 272.927 26.9883 273.744C26.9883 274.562 27.6512 275.225 28.469 275.225Z" fill="black" stroke="white"/>
<path d="M45.745 276.565C42.2919 276.001 33.6886 274.597 30.0898 274.009" stroke="white"/>
<path d="M30.6741 264.695C31.4919 264.695 32.1549 264.032 32.1549 263.214C32.1549 262.396 31.4919 261.733 30.6741 261.733C29.8563 261.733 29.1934 262.396 29.1934 263.214C29.1934 264.032 29.8563 264.695 30.6741 264.695Z" fill="black" stroke="white"/>
<path d="M45.9209 275.739C42.8736 273.236 35.2813 266.999 32.1055 264.391" stroke="white"/>
<path d="M25.5042 302.873C26.322 302.873 26.985 302.21 26.985 301.392C26.985 300.574 26.322 299.911 25.5042 299.911C24.6864 299.911 24.0234 300.574 24.0234 301.392C24.0234 302.21 24.6864 302.873 25.5042 302.873Z" fill="black" stroke="white"/>
<path d="M38.0128 293.684C35.4545 295.261 29.6986 298.808 26.9805 300.483" stroke="white"/>
<path d="M16.9651 307.026C17.7829 307.026 18.4459 306.363 18.4459 305.545C18.4459 304.727 17.7829 304.064 16.9651 304.064C16.1473 304.064 15.4844 304.727 15.4844 305.545C15.4844 306.363 16.1473 307.026 16.9651 307.026Z" fill="black" stroke="white"/>
<path d="M24.1685 302.041C22.5923 302.807 19.9816 304.077 18.373 304.859" stroke="white"/>
<path d="M15.3538 290.468C16.1716 290.468 16.8346 289.805 16.8346 288.987C16.8346 288.169 16.1716 287.506 15.3538 287.506C14.536 287.506 13.873 288.169 13.873 288.987C13.873 289.805 14.536 290.468 15.3538 290.468Z" fill="black" stroke="white"/>
<path d="M29.9166 285.483C26.9387 286.2 20.2383 287.812 17.0742 288.574" stroke="white"/>
<path d="M6.16241 292.51C6.98021 292.51 7.64317 291.847 7.64317 291.029C7.64317 290.212 6.98021 289.549 6.16241 289.549C5.3446 289.549 4.68164 290.212 4.68164 291.029C4.68164 291.847 5.3446 292.51 6.16241 292.51Z" fill="black" stroke="white"/>
<path d="M13.5844 289.381C11.9146 289.752 9.43297 290.303 7.80664 290.665" stroke="white"/>
<path d="M11.8558 273.445C12.6736 273.445 13.3365 272.782 13.3365 271.964C13.3365 271.146 12.6736 270.483 11.8558 270.483C11.038 270.483 10.375 271.146 10.375 271.964C10.375 272.782 11.038 273.445 11.8558 273.445Z" fill="black" stroke="white"/>
<path d="M26.9378 273.58C23.8531 273.25 16.9124 272.506 13.6348 272.155" stroke="white"/>
<path d="M2.48077 272.559C3.29857 272.559 3.96153 271.896 3.96153 271.078C3.96153 270.26 3.29857 269.597 2.48077 269.597C1.66296 269.597 1 270.26 1 271.078C1 271.896 1.66296 272.559 2.48077 272.559Z" fill="black" stroke="white"/>
<path d="M10.048 271.793C8.34574 271.632 5.81607 271.393 4.1582 271.237" stroke="white"/>
<path d="M15.1116 257.334C15.9294 257.334 16.5924 256.671 16.5924 255.853C16.5924 255.036 15.9294 254.373 15.1116 254.373C14.2938 254.373 13.6309 255.036 13.6309 255.853C13.6309 256.671 14.2938 257.334 15.1116 257.334Z" fill="black" stroke="white"/>
<path d="M29.2375 262.535C26.3486 261.168 19.8487 258.093 16.7793 256.641" stroke="white"/>
<path d="M6.37335 253.726C7.19115 253.726 7.85411 253.063 7.85411 252.245C7.85411 251.428 7.19115 250.765 6.37335 250.765C5.55554 250.765 4.89258 251.428 4.89258 252.245C4.89258 253.063 5.55554 253.726 6.37335 253.726Z" fill="black" stroke="white"/>
<path d="M13.4259 255.158C11.8391 254.502 9.48102 253.529 7.93555 252.89" stroke="white"/>
<path d="M46.3401 239.889C47.1579 239.889 47.8209 239.226 47.8209 238.408C47.8209 237.59 47.1579 236.927 46.3401 236.927C45.5223 236.927 44.8594 237.59 44.8594 238.408C44.8594 239.226 45.5223 239.889 46.3401 239.889Z" fill="black" stroke="white"/>
<path d="M59.7492 252.759C57.0694 249.891 50.3925 242.745 47.5996 239.756" stroke="white"/>
<path d="M46.3851 260.389C47.2029 260.389 47.8658 259.726 47.8658 258.908C47.8658 258.09 47.2029 257.427 46.3851 257.427C45.5673 257.427 44.9043 258.09 44.9043 258.908C44.9043 259.726 45.5673 260.389 46.3851 260.389Z" fill="black" stroke="white"/>
<path d="M59.3386 254.508C56.532 255.461 50.649 257.459 47.8828 258.399" stroke="white"/>
<path d="M41.5706 248.374C42.3884 248.374 43.0514 247.711 43.0514 246.894C43.0514 246.076 42.3884 245.413 41.5706 245.413C40.7528 245.413 40.0898 246.076 40.0898 246.894C40.0898 247.711 40.7528 248.374 41.5706 248.374Z" fill="black" stroke="white"/>
<path d="M59.3773 253.424C55.7474 252.093 46.5955 248.737 43.0273 247.428" stroke="white"/>
<path d="M59.0081 240.083C59.8259 240.083 60.4889 239.42 60.4889 238.602C60.4889 237.784 59.8259 237.121 59.0081 237.121C58.1903 237.121 57.5273 237.784 57.5273 238.602C57.5273 239.42 58.1903 240.083 59.0081 240.083Z" fill="black" stroke="white"/>
<path d="M60.6904 252.334C60.326 249.359 59.5622 243.122 59.2031 240.19" stroke="white"/>
<path d="M32.096 229.408C32.9138 229.408 33.5768 228.745 33.5768 227.927C33.5768 227.109 32.9138 226.446 32.096 226.446C31.2782 226.446 30.6152 227.109 30.6152 227.927C30.6152 228.745 31.2782 229.408 32.096 229.408Z" fill="black" stroke="white"/>
<path d="M45.0263 237.44C42.3817 235.494 36.4311 231.116 33.6211 229.048" stroke="white"/>
<path d="M30.2269 255.255C31.0447 255.255 31.7076 254.592 31.7076 253.774C31.7076 252.956 31.0447 252.293 30.2269 252.293C29.4091 252.293 28.7461 252.956 28.7461 253.774C28.7461 254.592 29.4091 255.255 30.2269 255.255Z" fill="black" stroke="white"/>
<path d="M44.8953 258.435C41.8951 257.482 35.1447 255.337 31.957 254.324" stroke="white"/>
<path d="M26.2405 239.856C27.0583 239.856 27.7213 239.193 27.7213 238.375C27.7213 237.557 27.0583 236.894 26.2405 236.894C25.4227 236.894 24.7598 237.557 24.7598 238.375C24.7598 239.193 25.4227 239.856 26.2405 239.856Z" fill="black" stroke="white"/>
<path d="M40.1564 246.108C37.3103 244.526 30.9067 240.967 27.8828 239.286" stroke="white"/>
<path d="M47.1116 227.489C47.9294 227.489 48.5924 226.826 48.5924 226.009C48.5924 225.191 47.9294 224.528 47.1116 224.528C46.2938 224.528 45.6309 225.191 45.6309 226.009C45.6309 226.826 46.2938 227.489 47.1116 227.489Z" fill="black" stroke="white"/>
<path d="M57.9105 237.44C55.7016 235.102 50.7317 229.841 48.3848 227.357" stroke="white"/>
<path d="M96.512 218.775C97.3298 218.775 97.9928 218.112 97.9928 217.294C97.9928 216.476 97.3298 215.813 96.512 215.813C95.6942 215.813 95.0312 216.476 95.0312 217.294C95.0312 218.112 95.6942 218.775 96.512 218.775Z" fill="black" stroke="white"/>
<path d="M96.6556 241.451C96.6205 235.627 96.5462 223.32 96.5195 218.909" stroke="white"/>
<path d="M76.6487 233.395C77.4665 233.395 78.1295 232.732 78.1295 231.915C78.1295 231.097 77.4665 230.434 76.6487 230.434C75.8309 230.434 75.168 231.097 75.168 231.915C75.168 232.732 75.8309 233.395 76.6487 233.395Z" fill="black" stroke="white"/>
<path d="M93.8939 242.82C89.5091 240.046 81.1642 234.768 77.9551 232.739" stroke="white"/>
<path d="M110.27 212.375C111.088 212.375 111.751 211.712 111.751 210.895C111.751 210.077 111.088 209.414 110.27 209.414C109.452 209.414 108.789 210.077 108.789 210.895C108.789 211.712 109.452 212.375 110.27 212.375Z" fill="black" stroke="white"/>
<path d="M97.9824 216.609C100.644 215.371 106.223 212.775 108.847 211.555" stroke="white"/>
<path d="M90.8343 199.893C91.6521 199.893 92.315 199.23 92.315 198.413C92.315 197.595 91.6521 196.932 90.8343 196.932C90.0165 196.932 89.3535 197.595 89.3535 198.413C89.3535 199.23 90.0165 199.893 90.8343 199.893Z" fill="black" stroke="white"/>
<path d="M96.0667 215.813C95 212.266 92.3104 203.323 91.2617 199.836" stroke="white"/>
<path d="M80.6448 204.716C81.4626 204.716 82.1256 204.053 82.1256 203.235C82.1256 202.418 81.4626 201.755 80.6448 201.755C79.827 201.755 79.1641 202.418 79.1641 203.235C79.1641 204.053 79.827 204.716 80.6448 204.716Z" fill="black" stroke="white"/>
<path d="M95.2682 216.191C92.3459 213.602 85.0651 207.151 82.0195 204.452" stroke="white"/>
<path d="M102.602 201.813C103.42 201.813 104.083 201.15 104.083 200.332C104.083 199.514 103.42 198.851 102.602 198.851C101.784 198.851 101.121 199.514 101.121 200.332C101.121 201.15 101.784 201.813 102.602 201.813Z" fill="black" stroke="white"/>
<path d="M97.0723 215.729C98.2501 212.448 100.962 204.896 102.091 201.749" stroke="white"/>
<path d="M116.926 198.87C117.744 198.87 118.407 198.207 118.407 197.389C118.407 196.572 117.744 195.909 116.926 195.909C116.108 195.909 115.445 196.572 115.445 197.389C115.445 198.207 116.108 198.87 116.926 198.87Z" fill="black" stroke="white"/>
<path d="M110.982 209.449C112.27 206.836 114.97 201.359 116.239 198.784" stroke="white"/>
<path d="M120.059 190.264C120.877 190.264 121.54 189.601 121.54 188.783C121.54 187.965 120.877 187.302 120.059 187.302C119.241 187.302 118.578 187.965 118.578 188.783C118.578 189.601 119.241 190.264 120.059 190.264Z" fill="black" stroke="white"/>
<path d="M117.533 195.73C118.102 194.167 118.948 191.844 119.502 190.322" stroke="white"/>
<path d="M85.5472 184.243C86.365 184.243 87.0279 183.58 87.0279 182.762C87.0279 181.944 86.365 181.281 85.5472 181.281C84.7294 181.281 84.0664 181.944 84.0664 182.762C84.0664 183.58 84.7294 184.243 85.5472 184.243Z" fill="black" stroke="white"/>
<path d="M90.3454 196.969C89.3641 194.063 87.156 187.525 86.1133 184.438" stroke="white"/>
<path d="M82.219 175.506C83.0369 175.506 83.6998 174.843 83.6998 174.025C83.6998 173.207 83.0369 172.544 82.219 172.544C81.4012 172.544 80.7383 173.207 80.7383 174.025C80.7383 174.843 81.4012 175.506 82.219 175.506Z" fill="black" stroke="white"/>
<path d="M84.9063 181.078C84.3017 179.491 83.4032 177.133 82.8145 175.587" stroke="white"/>
<path d="M69.889 190.89C70.7068 190.89 71.3697 190.227 71.3697 189.409C71.3697 188.591 70.7068 187.928 69.889 187.928C69.0712 187.928 68.4082 188.591 68.4082 189.409C68.4082 190.227 69.0712 190.89 69.889 190.89Z" fill="black" stroke="white"/>
<path d="M79.6531 201.959C77.6565 199.392 73.1643 193.616 71.043 190.889" stroke="white"/>
<path d="M64.0042 183.399C64.822 183.399 65.485 182.736 65.485 181.918C65.485 181.1 64.822 180.437 64.0042 180.437C63.1864 180.437 62.5234 181.1 62.5234 181.918C62.5234 182.736 63.1864 183.399 64.0042 183.399Z" fill="black" stroke="white"/>
<path d="M68.9706 188.238C67.8843 186.856 66.0851 184.566 64.9766 183.155" stroke="white"/>
<path d="M103.496 185.868C104.314 185.868 104.977 185.205 104.977 184.387C104.977 183.569 104.314 182.906 103.496 182.906C102.679 182.906 102.016 183.569 102.016 184.387C102.016 185.205 102.679 185.868 103.496 185.868Z" fill="black" stroke="white"/>
<path d="M102.699 198.625C102.872 195.54 103.235 189.074 103.406 186.033" stroke="white"/>
<path d="M103.387 176.68C104.205 176.68 104.868 176.017 104.868 175.199C104.868 174.381 104.205 173.718 103.387 173.718C102.569 173.718 101.906 174.381 101.906 175.199C101.906 176.017 102.569 176.68 103.387 176.68Z" fill="black" stroke="white"/>
<path d="M103.477 182.615C103.457 180.947 103.428 178.467 103.408 176.842" stroke="white"/>
<path d="M78.5628 218.217C79.3806 218.217 80.0436 217.554 80.0436 216.736C80.0436 215.918 79.3806 215.255 78.5628 215.255C77.745 215.255 77.082 215.918 77.082 216.736C77.082 217.554 77.745 218.217 78.5628 218.217Z" fill="black" stroke="white"/>
<path d="M76.8574 230.29C77.2276 227.354 78.0038 221.198 78.3687 218.303" stroke="white"/>
<path d="M65.9105 215.878C66.7283 215.878 67.3912 215.215 67.3912 214.397C67.3912 213.579 66.7283 212.916 65.9105 212.916C65.0926 212.916 64.4297 213.579 64.4297 214.397C64.4297 215.215 65.0926 215.878 65.9105 215.878Z" fill="black" stroke="white"/>
<path d="M75.809 230.54C73.7914 227.25 68.7042 218.953 66.7207 215.718" stroke="white"/>
<path d="M58.9612 232.617C59.779 232.617 60.442 231.954 60.442 231.136C60.442 230.318 59.779 229.655 58.9612 229.655C58.1434 229.655 57.4805 230.318 57.4805 231.136C57.4805 231.954 58.1434 232.617 58.9612 232.617Z" fill="black" stroke="white"/>
<path d="M75.0191 231.842C71.6659 231.695 64.0339 231.359 60.6406 231.209" stroke="white"/>
<path d="M58.6058 222.116C59.4236 222.116 60.0865 221.453 60.0865 220.635C60.0865 219.817 59.4236 219.154 58.6058 219.154C57.788 219.154 57.125 219.817 57.125 220.635C57.125 221.453 57.788 222.116 58.6058 222.116Z" fill="black" stroke="white"/>
<path d="M75.2346 231.029C71.8446 228.91 63.2973 223.568 59.9648 221.485" stroke="white"/>
<path d="M71.0198 203.083C71.8376 203.083 72.5006 202.42 72.5006 201.602C72.5006 200.785 71.8376 200.122 71.0198 200.122C70.202 200.122 69.5391 200.785 69.5391 201.602C69.5391 202.42 70.202 203.083 71.0198 203.083Z" fill="black" stroke="white"/>
<path d="M77.8687 215.34C76.4679 212.53 73.3164 206.208 71.8281 203.222" stroke="white"/>
<path d="M54.3167 202.838C55.1345 202.838 55.7975 202.175 55.7975 201.357C55.7975 200.54 55.1345 199.877 54.3167 199.877C53.4989 199.877 52.8359 200.54 52.8359 201.357C52.8359 202.175 53.4989 202.838 54.3167 202.838Z" fill="black" stroke="white"/>
<path d="M64.8385 213.193C62.6862 210.772 57.8435 205.325 55.5566 202.753" stroke="white"/>
<path d="M43.5257 223.202C44.3435 223.202 45.0065 222.539 45.0065 221.721C45.0065 220.903 44.3435 220.24 43.5257 220.24C42.7079 220.24 42.0449 220.903 42.0449 221.721C42.0449 222.539 42.7079 223.202 43.5257 223.202Z" fill="black" stroke="white"/>
<path d="M57.5346 230.267C54.5501 228.446 47.6795 224.254 44.8164 222.508" stroke="white"/>
<path d="M45.2054 210.728C46.0232 210.728 46.6861 210.065 46.6861 209.248C46.6861 208.43 46.0232 207.767 45.2054 207.767C44.3876 207.767 43.7246 208.43 43.7246 209.248C43.7246 210.065 44.3876 210.728 45.2054 210.728Z" fill="black" stroke="white"/>
<path d="M57.3651 219.584C54.8773 217.469 49.28 212.713 46.6367 210.466" stroke="white"/>
<path d="M142.795 328.269C143.613 328.269 144.276 327.606 144.276 326.789C144.276 325.971 143.613 325.308 142.795 325.308C141.977 325.308 141.314 325.971 141.314 326.789C141.314 327.606 141.977 328.269 142.795 328.269Z" fill="black" stroke="white"/>
<path d="M131.799 301.104C134.357 307.078 140.22 320.772 142.159 325.303" stroke="white"/>
<path d="M153.393 301.562C154.211 301.562 154.874 300.899 154.874 300.081C154.874 299.263 154.211 298.6 153.393 298.6C152.575 298.6 151.912 299.263 151.912 300.081C151.912 300.899 152.575 301.562 153.393 301.562Z" fill="black" stroke="white"/>
<path d="M133.562 298.502C138.49 298.894 148.155 299.664 151.879 299.961" stroke="white"/>
<path d="M135.153 345.574C135.97 345.574 136.633 344.911 136.633 344.093C136.633 343.275 135.97 342.612 135.153 342.612C134.335 342.612 133.672 343.275 133.672 344.093C133.672 344.911 134.335 345.574 135.153 345.574Z" fill="black" stroke="white"/>
<path d="M142.195 328.146C140.787 331.333 137.281 339.274 135.814 342.595" stroke="white"/>
<path d="M156.559 341.325C157.377 341.325 158.04 340.662 158.04 339.845C158.04 339.027 157.377 338.364 156.559 338.364C155.741 338.364 155.078 339.027 155.078 339.845C155.078 340.662 155.741 341.325 156.559 341.325Z" fill="black" stroke="white"/>
<path d="M144.064 327.993C146.727 330.518 152.855 336.331 155.409 338.753" stroke="white"/>
<path d="M145.828 346.23C146.646 346.23 147.309 345.567 147.309 344.749C147.309 343.931 146.646 343.268 145.828 343.268C145.011 343.268 144.348 343.931 144.348 344.749C144.348 345.567 145.011 346.23 145.828 346.23Z" fill="black" stroke="white"/>
<path d="M143.074 328.446C143.661 331.919 145.012 339.916 145.575 343.248" stroke="white"/>
<path d="M163.963 333.056C164.781 333.056 165.444 332.393 165.444 331.575C165.444 330.757 164.781 330.094 163.963 330.094C163.145 330.094 162.482 330.757 162.482 331.575C162.482 332.393 163.145 333.056 163.963 333.056Z" fill="black" stroke="white"/>
<path d="M144.453 327.164C148.43 328.063 158.457 330.33 162.366 331.214" stroke="white"/>
<path d="M135.875 362.105C136.693 362.105 137.356 361.442 137.356 360.624C137.356 359.806 136.693 359.143 135.875 359.143C135.057 359.143 134.395 359.806 134.395 360.624C134.395 361.442 135.057 362.105 135.875 362.105Z" fill="black" stroke="white"/>
<path d="M135.221 345.618C135.355 348.688 135.658 355.594 135.801 358.855" stroke="white"/>
<path d="M136.936 371.514C137.754 371.514 138.417 370.851 138.417 370.033C138.417 369.215 137.754 368.552 136.936 368.552C136.118 368.552 135.455 369.215 135.455 370.033C135.455 370.851 136.118 371.514 136.936 371.514Z" fill="black" stroke="white"/>
<path d="M136.08 362.438C136.272 364.147 136.558 366.686 136.745 368.35" stroke="white"/>
<path d="M167.418 353.727C168.236 353.727 168.899 353.064 168.899 352.246C168.899 351.428 168.236 350.765 167.418 350.765C166.6 350.765 165.938 351.428 165.938 352.246C165.938 353.064 166.6 353.727 167.418 353.727Z" fill="black" stroke="white"/>
<path d="M157.561 340.989C159.576 343.292 164.112 348.472 166.253 350.918" stroke="white"/>
<path d="M173.348 360.951C174.166 360.951 174.829 360.288 174.829 359.47C174.829 358.652 174.166 357.989 173.348 357.989C172.53 357.989 171.867 358.652 171.867 359.47C171.867 360.288 172.53 360.951 173.348 360.951Z" fill="black" stroke="white"/>
<path d="M168.561 353.638C169.638 354.95 171.239 356.9 172.289 358.178" stroke="white"/>
<path d="M151.641 361.634C152.459 361.634 153.122 360.971 153.122 360.154C153.122 359.336 152.459 358.673 151.641 358.673C150.823 358.673 150.16 359.336 150.16 360.154C150.16 360.971 150.823 361.634 151.641 361.634Z" fill="black" stroke="white"/>
<path d="M146.363 346.17C147.442 349.031 149.871 355.466 151.017 358.505" stroke="white"/>
<path d="M155.061 370.381C155.879 370.381 156.542 369.718 156.542 368.901C156.542 368.083 155.879 367.42 155.061 367.42C154.243 367.42 153.58 368.083 153.58 368.901C153.58 369.718 154.243 370.381 155.061 370.381Z" fill="black" stroke="white"/>
<path d="M152.301 361.84C152.922 363.429 153.845 365.79 154.45 367.337" stroke="white"/>
<path d="M178.414 340.861C179.232 340.861 179.895 340.198 179.895 339.38C179.895 338.563 179.232 337.9 178.414 337.9C177.597 337.9 176.934 338.563 176.934 339.38C176.934 340.198 177.597 340.861 178.414 340.861Z" fill="black" stroke="white"/>
<path d="M165.297 332.296C167.98 333.745 174.017 337.006 176.868 338.545" stroke="white"/>
<path d="M186.157 346.025C186.974 346.025 187.637 345.362 187.637 344.544C187.637 343.726 186.974 343.063 186.157 343.063C185.339 343.063 184.676 343.726 184.676 344.544C184.676 345.362 185.339 346.025 186.157 346.025Z" fill="black" stroke="white"/>
<path d="M179.906 340.376C181.312 341.314 183.401 342.708 184.77 343.621" stroke="white"/>
<path d="M174.078 305.854C174.896 305.854 175.559 305.191 175.559 304.373C175.559 303.555 174.896 302.892 174.078 302.892C173.261 302.892 172.598 303.555 172.598 304.373C172.598 305.191 173.261 305.854 174.078 305.854Z" fill="black" stroke="white"/>
<path d="M155.016 300.418C158.901 301.224 168.699 303.257 172.518 304.05" stroke="white"/>
<path d="M170.123 296.198C170.941 296.198 171.604 295.535 171.604 294.718C171.604 293.9 170.941 293.237 170.123 293.237C169.306 293.237 168.643 293.9 168.643 294.718C168.643 295.535 169.306 296.198 170.123 296.198Z" fill="black" stroke="white"/>
<path d="M154.934 299.586C158.04 298.59 165.031 296.35 168.332 295.292" stroke="white"/>
<path d="M169.125 314.328C169.943 314.328 170.606 313.665 170.606 312.847C170.606 312.029 169.943 311.366 169.125 311.366C168.307 311.366 167.645 312.029 167.645 312.847C167.645 313.665 168.307 314.328 169.125 314.328Z" fill="black" stroke="white"/>
<path d="M154.625 301.083C157.522 303.434 164.741 309.292 167.761 311.742" stroke="white"/>
<path d="M152.713 314.903C153.531 314.903 154.194 314.24 154.194 313.423C154.194 312.605 153.531 311.942 152.713 311.942C151.895 311.942 151.232 312.605 151.232 313.423C151.232 314.24 151.895 314.903 152.713 314.903Z" fill="black" stroke="white"/>
<path d="M153.31 301.717C153.18 304.277 152.929 309.204 152.799 311.773" stroke="white"/>
<path d="M189.86 311.27C190.677 311.27 191.34 310.607 191.34 309.789C191.34 308.971 190.677 308.308 189.86 308.308C189.042 308.308 188.379 308.971 188.379 309.789C188.379 310.607 189.042 311.27 189.86 311.27Z" fill="black" stroke="white"/>
<path d="M175.535 304.873C178.466 305.879 185.059 308.141 188.173 309.209" stroke="white"/>
<path d="M187.078 298.771C187.896 298.771 188.559 298.108 188.559 297.29C188.559 296.472 187.896 295.809 187.078 295.809C186.261 295.809 185.598 296.472 185.598 297.29C185.598 298.108 186.261 298.771 187.078 298.771Z" fill="black" stroke="white"/>
<path d="M171.689 294.955C174.837 295.433 181.919 296.507 185.263 297.015" stroke="white"/>
<path d="M183.905 322.197C184.722 322.197 185.385 321.534 185.385 320.716C185.385 319.898 184.722 319.235 183.905 319.235C183.087 319.235 182.424 319.898 182.424 320.716C182.424 321.534 183.087 322.197 183.905 322.197Z" fill="black" stroke="white"/>
<path d="M170.488 313.573C173.232 315.034 179.407 318.321 182.322 319.874" stroke="white"/>
<path d="M162.682 325.977C163.5 325.977 164.163 325.314 164.163 324.496C164.163 323.678 163.5 323.015 162.682 323.015C161.864 323.015 161.201 323.678 161.201 324.496C161.201 325.314 161.864 325.977 162.682 325.977Z" fill="black" stroke="white"/>
<path d="M153.936 314.781C155.932 316.998 159.853 321.354 161.688 323.393" stroke="white"/>
<path d="M68.848 320.667C69.6658 320.667 70.3287 320.004 70.3287 319.186C70.3287 318.369 69.6658 317.706 68.848 317.706C68.0301 317.706 67.3672 318.369 67.3672 319.186C67.3672 320.004 68.0301 320.667 68.848 320.667Z" fill="black" stroke="white"/>
<path d="M88.9417 303.356C84.2258 307.072 73.9097 315.2 70.207 318.117" stroke="white"/>
<path d="M96.1331 324.976C96.9509 324.976 97.6139 324.313 97.6139 323.496C97.6139 322.678 96.9509 322.015 96.1331 322.015C95.3153 322.015 94.6523 322.678 94.6523 323.496C94.6523 324.313 95.3153 324.976 96.1331 324.976Z" fill="black" stroke="white"/>
<path d="M92.0156 304.523C93.0423 309.254 94.9782 318.173 95.7759 321.849" stroke="white"/>
<path d="M52.5237 327.755C53.3415 327.755 54.0045 327.092 54.0045 326.274C54.0045 325.456 53.3415 324.793 52.5237 324.793C51.7059 324.793 51.043 325.456 51.043 326.274C51.043 327.092 51.7059 327.755 52.5237 327.755Z" fill="black" stroke="white"/>
<path d="M67.3453 319.841C64.1875 321.211 56.918 324.367 53.8887 325.682" stroke="white"/>
<path d="M51.178 316.69C51.9958 316.69 52.6588 316.027 52.6588 315.209C52.6588 314.391 51.9958 313.728 51.178 313.728C50.3602 313.728 49.6973 314.391 49.6973 315.209C49.6973 316.027 50.3602 316.69 51.178 316.69Z" fill="black" stroke="white"/>
<path d="M67.2206 318.819C63.8029 318.05 55.9349 316.279 52.6562 315.541" stroke="white"/>
<path d="M69.8733 341.434C70.6912 341.434 71.3541 340.771 71.3541 339.953C71.3541 339.135 70.6912 338.472 69.8733 338.472C69.0555 338.472 68.3926 339.135 68.3926 339.953C68.3926 340.771 69.0555 341.434 69.8733 341.434Z" fill="black" stroke="white"/>
<path d="M68.9316 320.816C69.1236 324.717 69.6074 334.553 69.7961 338.388" stroke="white"/>
<path d="M59.971 336.976C60.7888 336.976 61.4518 336.313 61.4518 335.495C61.4518 334.677 60.7888 334.014 59.971 334.014C59.1532 334.014 58.4902 334.677 58.4902 335.495C58.4902 336.313 59.1532 336.976 59.971 336.976Z" fill="black" stroke="white"/>
<path d="M68.0293 320.691C66.312 323.846 62.3585 331.107 60.7109 334.133" stroke="white"/>
<path d="M39.5589 337.721C40.3767 337.721 41.0397 337.058 41.0397 336.24C41.0397 335.422 40.3767 334.76 39.5589 334.76C38.7411 334.76 38.0781 335.422 38.0781 336.24C38.0781 337.058 38.7411 337.721 39.5589 337.721Z" fill="black" stroke="white"/>
<path d="M51.3269 327.194C48.92 329.044 43.5046 333.207 40.9473 335.173" stroke="white"/>
<path d="M32.1858 343.525C33.0037 343.525 33.6666 342.862 33.6666 342.044C33.6666 341.227 33.0037 340.564 32.1858 340.564C31.368 340.564 30.7051 341.227 30.7051 342.044C30.7051 342.862 31.368 343.525 32.1858 343.525Z" fill="black" stroke="white"/>
<path d="M38.1369 337.359C36.7979 338.414 34.808 339.98 33.5039 341.007" stroke="white"/>
<path d="M36.0159 322.133C36.8337 322.133 37.4967 321.47 37.4967 320.652C37.4967 319.834 36.8337 319.171 36.0159 319.171C35.1981 319.171 34.5352 319.834 34.5352 320.652C34.5352 321.47 35.1981 322.133 36.0159 322.133Z" fill="black" stroke="white"/>
<path d="M49.7801 315.711C46.9651 316.722 40.6315 318.996 37.6406 320.07" stroke="white"/>
<path d="M27.4495 326.217C28.2673 326.217 28.9303 325.554 28.9303 324.736C28.9303 323.918 28.2673 323.255 27.4495 323.255C26.6317 323.255 25.9688 323.918 25.9688 324.736C25.9688 325.554 26.6317 326.217 27.4495 326.217Z" fill="black" stroke="white"/>
<path d="M34.6763 321.29C33.0948 322.044 30.4753 323.292 28.8613 324.061" stroke="white"/>
<path d="M66.096 357.882C66.9138 357.882 67.5768 357.219 67.5768 356.402C67.5768 355.584 66.9138 354.921 66.096 354.921C65.2782 354.921 64.6152 355.584 64.6152 356.402C64.6152 357.219 65.2782 357.882 66.096 357.882Z" fill="black" stroke="white"/>
<path d="M69.5217 341.471C68.8206 344.525 67.2431 351.397 66.498 354.642" stroke="white"/>
<path d="M63.6038 366.932C64.4216 366.932 65.0846 366.269 65.0846 365.451C65.0846 364.633 64.4216 363.97 63.6038 363.97C62.786 363.97 62.123 364.633 62.123 365.451C62.123 366.269 62.786 366.932 63.6038 366.932Z" fill="black" stroke="white"/>
<path d="M65.6143 358.147C65.1618 359.79 64.4895 362.232 64.0488 363.833" stroke="white"/>
<path d="M51.1077 350.832C51.9255 350.832 52.5885 350.169 52.5885 349.351C52.5885 348.533 51.9255 347.87 51.1077 347.87C50.2899 347.87 49.627 348.533 49.627 349.351C49.627 350.169 50.2899 350.832 51.1077 350.832Z" fill="black" stroke="white"/>
<path d="M59.1528 336.774C57.5073 339.346 53.805 345.134 52.0566 347.867" stroke="white"/>
<path d="M45.9573 358.632C46.7751 358.632 47.4381 357.969 47.4381 357.151C47.4381 356.334 46.7751 355.671 45.9573 355.671C45.1395 355.671 44.4766 356.334 44.4766 357.151C44.4766 357.969 45.1395 358.632 45.9573 358.632Z" fill="black" stroke="white"/>
<path d="M50.1138 350.855C49.1783 352.271 47.7881 354.377 46.877 355.756" stroke="white"/>
<path d="M108.215 335.419C109.033 335.419 109.696 334.756 109.696 333.938C109.696 333.12 109.033 332.457 108.215 332.457C107.397 332.457 106.734 333.12 106.734 333.938C106.734 334.756 107.397 335.419 108.215 335.419Z" fill="black" stroke="white"/>
<path d="M97.6152 324.776C100.034 326.867 104.786 330.975 107.011 332.898" stroke="white"/>
<path d="M90.8616 344.51C91.6794 344.51 92.3424 343.847 92.3424 343.029C92.3424 342.211 91.6794 341.548 90.8616 341.548C90.0438 341.548 89.3809 342.211 89.3809 343.029C89.3809 343.847 90.0438 344.51 90.8616 344.51Z" fill="black" stroke="white"/>
<path d="M95.7207 325.029C94.7308 328.698 92.2349 337.949 91.2617 341.557" stroke="white"/>
<path d="M83.7659 334.468C84.5837 334.468 85.2467 333.805 85.2467 332.987C85.2467 332.17 84.5837 331.507 83.7659 331.507C82.9481 331.507 82.2852 332.17 82.2852 332.987C82.2852 333.805 82.9481 334.468 83.7659 334.468Z" fill="black" stroke="white"/>
<path d="M94.806 324.511C92.4137 326.348 87.3988 330.197 85.041 332.007" stroke="white"/>
<path d="M100.787 344.747C101.605 344.747 102.268 344.084 102.268 343.266C102.268 342.448 101.605 341.785 100.787 341.785C99.9696 341.785 99.3066 342.448 99.3066 343.266C99.3066 344.084 99.9696 344.747 100.787 344.747Z" fill="black" stroke="white"/>
<path d="M96.498 325.047C97.3729 328.761 99.5787 338.125 100.439 341.776" stroke="white"/>
<path d="M111.522 351.604C112.34 351.604 113.003 350.941 113.003 350.123C113.003 349.305 112.34 348.642 111.522 348.642C110.704 348.642 110.041 349.305 110.041 350.123C110.041 350.941 110.704 351.604 111.522 351.604Z" fill="black" stroke="white"/>
<path d="M108.52 335.432C109.134 338.437 110.516 345.198 111.169 348.391" stroke="white"/>
<path d="M88.7034 361.419C89.5212 361.419 90.1842 360.756 90.1842 359.938C90.1842 359.12 89.5212 358.457 88.7034 358.457C87.8856 358.457 87.2227 359.12 87.2227 359.938C87.2227 360.756 87.8856 361.419 88.7034 361.419Z" fill="black" stroke="white"/>
<path d="M90.6639 344.589C90.2631 347.728 89.3614 354.792 88.9355 358.128" stroke="white"/>
<path d="M78.5452 350.395C79.363 350.395 80.026 349.732 80.026 348.914C80.026 348.096 79.363 347.433 78.5452 347.433C77.7274 347.433 77.0645 348.096 77.0645 348.914C77.0645 349.732 77.7274 350.395 78.5452 350.395Z" fill="black" stroke="white"/>
<path d="M83.2819 334.457C82.3125 337.414 80.1315 344.068 79.1016 347.21" stroke="white"/>
<path d="M100.907 361.882C101.724 361.882 102.387 361.219 102.387 360.401C102.387 359.583 101.724 358.92 100.907 358.92C100.089 358.92 99.4258 359.583 99.4258 360.401C99.4258 361.219 100.089 361.882 100.907 361.882Z" fill="black" stroke="white"/>
<path d="M100.801 344.848C100.823 348.03 100.871 355.188 100.895 358.568" stroke="white"/>
<path d="M113.112 309.659C113.929 309.659 114.592 308.996 114.592 308.178C114.592 307.36 113.929 306.697 113.112 306.697C112.294 306.697 111.631 307.36 111.631 308.178C111.631 308.996 112.294 309.659 113.112 309.659Z" fill="black" stroke="white"/>
<path d="M109.316 287.757C110.259 292.832 112.109 302.786 112.822 306.621" stroke="white"/>
<path d="M92.8968 286.269C93.7146 286.269 94.3775 285.606 94.3775 284.789C94.3775 283.971 93.7146 283.308 92.8968 283.308C92.079 283.308 91.416 283.971 91.416 284.789C91.416 285.606 92.079 286.269 92.8968 286.269Z" fill="black" stroke="white"/>
<path d="M105.689 284.706C102.379 284.727 97.2189 284.761 94.5781 284.778" stroke="white"/>
<path d="M116.735 333.882C117.552 333.882 118.215 333.219 118.215 332.401C118.215 331.584 117.552 330.921 116.735 330.921C115.917 330.921 115.254 331.584 115.254 332.401C115.254 333.219 115.917 333.882 116.735 333.882Z" fill="black" stroke="white"/>
<path d="M113.35 309.768C114.005 314.146 115.831 326.352 116.492 330.775" stroke="white"/>
<path d="M117.889 351.753C118.707 351.753 119.37 351.09 119.37 350.272C119.37 349.454 118.707 348.791 117.889 348.791C117.071 348.791 116.408 349.454 116.408 350.272C116.408 351.09 117.071 351.753 117.889 351.753Z" fill="black" stroke="white"/>
<path d="M116.84 334.051C117.062 337.507 117.575 345.464 117.789 348.779" stroke="white"/>
<path d="M117.916 361.747C118.734 361.747 119.397 361.084 119.397 360.266C119.397 359.449 118.734 358.786 117.916 358.786C117.099 358.786 116.436 359.449 116.436 360.266C116.436 361.084 117.099 361.747 117.916 361.747Z" fill="black" stroke="white"/>
<path d="M117.891 351.833C117.896 353.678 117.905 356.733 117.91 358.616" stroke="white"/>
<path d="M77.0589 294.483C77.8767 294.483 78.5397 293.82 78.5397 293.002C78.5397 292.184 77.8767 291.521 77.0589 291.521C76.2411 291.521 75.5781 292.184 75.5781 293.002C75.5781 293.82 76.2411 294.483 77.0589 294.483Z" fill="black" stroke="white"/>
<path d="M91.4372 285.547C88.3743 287.135 81.3231 290.792 78.3848 292.316" stroke="white"/>
<path d="M64.9827 301.05C65.8005 301.05 66.4635 300.387 66.4635 299.569C66.4635 298.752 65.8005 298.089 64.9827 298.089C64.1649 298.089 63.502 298.752 63.502 299.569C63.502 300.387 64.1649 301.05 64.9827 301.05Z" fill="black" stroke="white"/>
<path d="M75.5773 293.808C73.2596 295.068 68.7999 297.493 66.4746 298.758" stroke="white"/>
<path d="M136.528 185.181C138.164 185.181 139.489 183.855 139.489 182.22C139.489 180.584 138.164 179.258 136.528 179.258C134.892 179.258 133.566 180.584 133.566 182.22C133.566 183.855 134.892 185.181 136.528 185.181Z" fill="black" stroke="white"/>
<path d="M131.365 214.303C132.61 206.565 135.018 191.605 136.045 185.223" stroke="white"/>
</svg>
