<svg width="17" height="589" viewBox="0 0 17 589" fill="none" xmlns="http://www.w3.org/2000/svg">
<path d="M8 1L8 93.3259" stroke="#091747" stroke-opacity="0.1" stroke-width="2" stroke-linecap="square"/>
<path d="M8 337.262L8.00001 588" stroke="#091747" stroke-opacity="0.1" stroke-width="2" stroke-linecap="square"/>
<path d="M8 129L8.00013 304" stroke="#091747" stroke-opacity="0.1" stroke-width="2" stroke-linecap="square"/>
<path d="M15.0478 111.798C15.0478 115.526 11.9302 118.596 8.02388 118.596C4.11759 118.596 1 115.526 1 111.798C1 108.07 4.11759 105 8.02388 105C11.9302 105 15.0478 108.07 15.0478 111.798Z" stroke="#091747" stroke-opacity="0.1" stroke-width="2"/>
<path d="M15.0478 320.764C15.0478 324.492 11.9302 327.562 8.02388 327.562C4.11759 327.562 1 324.492 1 320.764C1 317.036 4.11759 313.966 8.02388 313.966C11.9302 313.966 15.0478 317.036 15.0478 320.764Z" stroke="#091747" stroke-opacity="0.1" stroke-width="2"/>
</svg>
